Patient4_TMGait_0pt7_01_left_41_GRF.mot
version=1
nRows=26
nColumns=19
inDegrees=no
endheader
time	F1x	F1y	F1z	M1x	M1y	M1z	F2x	F2y	F2z	M2x	M2y	M2z	EC1x	EC1y	EC1z	EC2x	EC2y	EC2z
47.47	7.1661	-5.3951	11.7107	-0.74651	-8.5422	-1.3112	-25.9205	740.7728	-59.0285	285.5552	83.4886	817.4263	-0.0592	0.0182	-0.0073	-0.0462	0.0165	0.9585
47.4816	4.7623	-2.9239	7.8658	-0.78917	-5.7129	0.023875	-23.6566	733.8982	-61.5916	284.2435	82.4956	807.9081	-0.0592	0.0182	-0.0073	-0.0462	0.0165	0.9585
47.4931	2.7507	-0.8116	4.6273	-0.82786	-3.3516	1.1791	-21.2591	728.7196	-63.4116	283.3329	80.9662	799.4245	-0.0592	0.0182	-0.0073	-0.0462	0.0165	0.9585
47.5047	1.2324	0.82013	2.1581	-0.86511	-1.5651	2.0895	-18.8548	725.9991	-64.3385	283.0703	78.955	792.8383	-0.0592	0.0182	-0.0073	-0.0462	0.0165	0.9585
47.5163	0.19353	1.9791	0.47015	-0.89827	-0.36251	2.7499	-16.505	726.0662	-64.4042	283.6243	76.547	788.5853	-0.0592	0.0182	-0.0073	-0.0462	0.0165	0.9585
47.5279	-0.45156	2.7353	-0.57316	-0.92571	0.36384	3.1957	-14.2259	728.9201	-63.7619	285.0654	73.8532	786.7628	-0.0592	0.0182	-0.0073	-0.0462	0.0165	0.9585
47.5394	-0.80862	3.1634	-1.1111	-0.94241	0.71106	3.4544	-11.9781	734.2147	-62.6125	287.3304	70.9749	787.0943	-0.0592	0.0182	-0.0073	-0.0462	0.0165	0.9585
47.551	-0.99315	3.3312	-1.3007	-0.94128	0.79059	3.5368	-9.6954	741.2791	-61.1732	290.2134	68.0138	788.9569	-0.0592	0.0182	-0.0073	-0.0462	0.0165	0.9585
47.5626	-1.0863	3.2801	-1.2664	-0.91073	0.689	3.4354	-7.2748	749.2051	-59.6666	293.3938	65.0779	791.4591	-0.0592	0.0182	-0.0073	-0.0462	0.0165	0.9585
47.5741	-1.1674	3.0096	-1.0851	-0.82993	0.45211	3.1146	-4.5966	756.9969	-58.2585	296.5002	62.2285	793.6185	-0.0592	0.0182	-0.0073	-0.0462	0.0165	0.9585
47.5857	-1.2718	2.4987	-0.83113	-0.67478	0.1358	2.5199	-1.5483	763.7248	-57.0769	299.1716	59.4987	794.5281	-0.0592	0.0182	-0.0073	-0.0462	0.0165	0.9585
47.5973	-1.4166	1.6926	-0.52399	-0.41233	-0.24722	1.5781	1.948	768.6516	-56.1867	301.11	56.8846	793.4865	-0.0592	0.0182	-0.0073	-0.0462	0.0165	0.9585
47.6089	-1.5901	0.53852	-0.20914	-0.015787	-0.64892	0.21281	5.9087	771.2788	-55.6217	302.1075	54.3869	790.0477	-0.0592	0.0182	-0.0073	-0.0462	0.0165	0.9585
47.6204	-1.7422	-0.99744	0.10209	0.53113	-1.0374	-1.615	10.2824	771.4013	-55.3922	302.0704	52.0237	784.0867	-0.0592	0.0182	-0.0073	-0.0462	0.0165	0.9585
47.632	-1.7766	-2.8833	0.36293	1.2138	-1.3262	-3.8739	14.9181	769.1258	-55.5005	301.0292	49.8565	775.8089	-0.0592	0.0182	-0.0073	-0.0462	0.0165	0.9585
47.6436	-1.5463	-4.9489	0.52579	1.9639	-1.4056	-6.3615	19.6084	764.831	-55.9295	299.1289	47.9579	765.7038	-0.0592	0.0182	-0.0073	-0.0462	0.0165	0.9585
47.6551	-0.86166	-6.8213	0.50546	2.6361	-1.1033	-8.6216	24.1418	759.0776	-56.6542	296.5922	46.3987	754.4305	-0.0592	0.0182	-0.0073	-0.0462	0.0165	0.9585
47.6667	0.50445	-7.8403	0.17507	2.9809	-0.18274	-9.8525	28.3202	752.5314	-57.6011	293.6895	45.1923	742.7162	-0.0592	0.0182	-0.0073	-0.0462	0.0165	0.9585
47.6783	2.7824	-7.0012	-0.62533	2.6253	1.6424	-8.8409	31.9937	745.8835	-58.692	290.7026	44.3306	731.2957	-0.0592	0.0182	-0.0073	-0.0462	0.0165	0.9585
47.6899	6.1816	-2.9192	-2.0891	1.0633	4.6844	-3.92	35.0618	739.7076	-59.8272	287.8679	43.7643	720.7572	-0.0592	0.0182	-0.0073	-0.0462	0.0165	0.9585
47.7014	10.7664	6.1381	-4.3827	-2.3373	9.1778	7.0084	37.5079	734.3378	-60.9301	285.3262	43.4355	711.4312	-0.0592	0.0182	-0.0073	-0.0462	0.0165	0.9585
47.713	16.3782	22.0837	-7.6169	-8.2739	15.1949	26.287	39.3937	729.7578	-61.909	283.0816	43.2407	703.2951	-0.0592	0.0182	-0.0073	-0.0462	0.0165	0.9585
47.7246	22.4251	46.679	-11.7351	-17.3783	22.4487	56.1033	40.8306	725.5054	-62.6545	280.9662	43.0367	695.8963	-0.0592	0.0182	-0.0073	-0.0462	0.0165	0.9585
47.7361	27.7305	80.9027	-16.4223	-29.9867	30.1029	97.6916	41.9693	720.6343	-63.018	278.63	42.6266	688.2977	-0.0592	0.0182	-0.0073	-0.0462	0.0165	0.9585
47.7477	30.2888	124.0949	-20.9242	-45.8207	36.492	150.3247	42.959	713.8036	-62.789	275.5755	41.7498	679.1788	-0.0592	0.0182	-0.0073	-0.0462	0.0165	0.9585
47.7593	27.9051	173.6039	-24.0115	-63.8572	39.351	210.8863	43.9264	703.4747	-61.7351	271.2323	40.1422	667.0392	-0.0592	0.0182	-0.0073	-0.0462	0.0165	0.9585
